<?xml version="1.0" standalone="no"?>
<!DOCTYPE svg PUBLIC "-//W3C//DTD SVG 20010904//EN"
 "http://www.w3.org/TR/2001/REC-SVG-20010904/DTD/svg10.dtd">
<svg version="1.0" xmlns="http://www.w3.org/2000/svg"
 width="512.000000pt" height="512.000000pt" viewBox="0 0 512.000000 512.000000"
 preserveAspectRatio="xMidYMid meet">
<metadata>
Created by potrace 1.14, written by Peter Selinger 2001-2017
</metadata>
<g transform="translate(0.000000,512.000000) scale(0.100000,-0.100000)"
fill="#000000" stroke="none">
<path d="M2389 4826 c-2 -2 -35 -7 -74 -10 -83 -9 -110 -12 -150 -20 -16 -4
-45 -9 -64 -12 -18 -3 -66 -14 -105 -25 -39 -11 -81 -22 -94 -25 -104 -22
-409 -158 -537 -238 -164 -104 -295 -206 -418 -330 -117 -116 -125 -126 -228
-262 -108 -143 -198 -299 -273 -476 -33 -78 -90 -242 -101 -293 -2 -11 -9 -40
-16 -65 -6 -25 -12 -53 -14 -63 -2 -10 -6 -26 -9 -35 -3 -9 -8 -39 -11 -67 -3
-27 -8 -61 -10 -75 -24 -141 -26 -392 -4 -547 25 -177 28 -190 54 -293 103
-410 319 -790 606 -1070 101 -97 201 -184 265 -228 365 -250 708 -382 1114
-428 184 -21 497 -6 670 32 14 3 36 7 50 10 272 54 598 199 836 371 119 85
153 113 259 212 380 357 641 887 691 1404 4 37 11 70 16 73 4 3 4 14 -2 24 -6
10 -6 21 -1 24 9 6 9 265 0 281 -3 6 -7 29 -8 53 0 24 -3 55 -5 70 -2 15 -8
47 -11 72 -9 55 -9 56 -30 150 -20 93 -23 105 -25 105 -1 0 -3 7 -5 15 -5 25
-65 202 -83 245 -264 628 -765 1096 -1403 1308 -88 30 -219 64 -275 72 -21 4
-46 8 -54 10 -8 2 -37 7 -65 10 -27 4 -61 9 -75 12 -28 5 -406 14 -411 9z"/>
</g>
</svg>
